<?xml version="1.0" encoding="UTF-8"?>
<svg width="1920" height="1080" viewBox="0 0 1920 1080" fill="none" xmlns="http://www.w3.org/2000/svg">
  <rect width="1920" height="1080" fill="#f5f6fa"/>
  <g opacity="0.12">
    <circle cx="300" cy="200" r="80" fill="#4CAF50"/>
    <rect x="600" y="100" width="120" height="120" rx="24" fill="#2196F3"/>
    <ellipse cx="1100" cy="300" rx="90" ry="60" fill="#FF9800"/>
    <path d="M1500 200c0-44.18 35.82-80 80-80s80 35.82 80 80-35.82 80-80 80-80-35.82-80-80zm80-40a40 40 0 100 80 40 40 0 000-80z" fill="#E91E63"/>
    <rect x="300" y="700" width="140" height="60" rx="30" fill="#00BCD4"/>
    <path d="M800 900c0-33.14 26.86-60 60-60s60 26.86 60 60-26.86 60-60 60-60-26.86-60-60zm60-30a30 30 0 100 60 30 30 0 000-60z" fill="#8BC34A"/>
    <ellipse cx="1400" cy="800" rx="70" ry="40" fill="#FFC107"/>
    <rect x="1700" y="900" width="100" height="100" rx="20" fill="#9C27B0"/>
    <!-- Health icons: heart, apple, dumbbell, stethoscope (stylized) -->
    <path d="M400 400c0-30 24-54 54-54s54 24 54 54c0 30-54 90-54 90s-54-60-54-90z" fill="#E53935"/>
    <circle cx="600" cy="500" r="36" fill="#43A047"/>
    <rect x="800" y="400" width="80" height="20" rx="10" fill="#757575"/>
    <rect x="820" y="380" width="20" height="60" rx="10" fill="#757575"/>
    <path d="M1000 600c0-22.09 17.91-40 40-40s40 17.91 40 40-17.91 40-40 40-40-17.91-40-40zm40-20a20 20 0 100 40 20 20 0 000-40z" fill="#00ACC1"/>
  </g>
</svg>
